<?xml version="1.0" encoding="utf-8"?>
<!-- Generator: Adobe Illustrator 16.0.0, SVG Export Plug-In . SVG Version: 6.00 Build 0)  -->
<!DOCTYPE svg PUBLIC "-//W3C//DTD SVG 1.1//EN" "http://www.w3.org/Graphics/SVG/1.1/DTD/svg11.dtd">
<svg version="1.1" id="Capa_1" xmlns="http://www.w3.org/2000/svg" xmlns:xlink="http://www.w3.org/1999/xlink" x="0px" y="0px"
	 width="400px" height="400px" viewBox="0 0 400 400" enable-background="new 0 0 400 400" xml:space="preserve">
<g>
	<path fill="#2C2F33" d="M275.32,215.039c37.039-2.641,66-34.32,66-72.238c0-32.961-22.398-62.16-53.039-70.242
		C281.719,33.121,247.801,4,207.078,4c-29.519,0-56.879,16-71.437,41.281c-2.801-0.562-5.762-0.801-8.641-0.801
		c-24.879,0-45.121,20.239-45.121,45.122c0,3.199,0.32,6.32,0.961,9.359C66.762,110.641,57,129.52,57,149.52
		c0,33.761,27.121,63.839,59.199,65.601H274.84C274.922,215.121,275.16,215.121,275.32,215.039L275.32,215.039z M116.84,199.281
		c-23.918-1.441-44-24.16-44-49.761c0-16.559,8.879-32,23.199-40.321c3.359-1.918,4.801-6,3.441-9.597
		c-1.199-3.122-1.761-6.481-1.761-10c0-16.161,13.121-29.282,29.281-29.282c3.441,0,6.801,0.559,10,1.758
		c3.84,1.442,8.16-0.316,9.922-4.078c10.879-23.199,34.558-38.16,60.238-38.16c34.48,0,62.961,25.84,66.238,60.082
		c0.32,3.598,3.043,6.476,6.563,7.039c26,4.48,45.598,28.48,45.598,55.84c0,29.039-22.879,54.32-51.039,56.48H116.84z
		 M116.84,199.281"/>
	<path fill="#3C92CA" d="M199.16,241.84c-4.398,0-7.922,3.52-7.922,7.922v92.797c-10.957,3.363-19.117,13.52-19.359,25.441
		c-0.16,7.281,2.48,14.238,7.519,19.52c5.043,5.281,11.84,8.32,19.122,8.48h0.64c14.719,0,26.961-12,27.281-26.641
		c0.16-7.281-2.48-14.238-7.52-19.52c-3.281-3.441-7.363-5.918-11.844-7.281v-92.797C207.078,245.359,203.559,241.84,199.16,241.84
		L199.16,241.84z M207.48,360.801c2.078,2.238,3.281,5.121,3.199,8.16c-0.16,6.16-5.281,11.199-11.442,11.199h-0.316
		c-3.043-0.082-5.922-1.359-8-3.52c-2.082-2.242-3.281-5.121-3.203-8.16c0.16-6.16,5.281-11.199,11.441-11.199h0.32
		C202.52,357.281,205.32,358.559,207.48,360.801L207.48,360.801z M207.48,360.801"/>
	<path fill="#3C92CA" d="M148.281,249.762v44.398c0,7.68-6.242,13.84-13.84,13.84h-23.363c-3.437-11.199-13.84-19.441-26.156-19.441
		c-15.043,0-27.363,12.242-27.363,27.363c0,15.117,12.242,27.359,27.363,27.359c12.316,0,22.719-8.16,26.156-19.441h23.363
		c16.399,0,29.68-13.359,29.68-29.68v-44.398c0-4.402-3.519-7.922-7.922-7.922C151.879,241.84,148.281,245.359,148.281,249.762
		L148.281,249.762z M84.922,327.441c-6.32,0-11.524-5.121-11.524-11.52c0-6.402,5.122-11.523,11.524-11.523
		c6.316,0,11.519,5.121,11.519,11.523C96.441,322.32,91.32,327.441,84.922,327.441L84.922,327.441z M84.922,327.441"/>
	<path fill="#3C92CA" d="M263.879,323.922h23.359c3.441,11.199,13.84,19.438,26.16,19.438c15.043,0,27.363-12.238,27.363-27.359
		s-12.242-27.359-27.363-27.359c-12.32,0-22.719,8.16-26.16,19.438h-23.359c-7.68,0-13.84-6.238-13.84-13.84V249.84
		c0-4.398-3.52-7.918-7.918-7.918c-4.402,0-7.922,3.52-7.922,7.918v44.398C234.199,310.559,247.48,323.922,263.879,323.922
		L263.879,323.922z M313.398,304.48c6.32,0,11.523,5.121,11.523,11.52s-5.121,11.52-11.523,11.52c-6.398,0-11.52-5.121-11.52-11.52
		S307,304.48,313.398,304.48L313.398,304.48z M313.398,304.48"/>
</g>
</svg>
