<?xml version="1.0" encoding="utf-8"?>
<!-- Generator: Adobe Illustrator 16.0.0, SVG Export Plug-In . SVG Version: 6.00 Build 0)  -->
<!DOCTYPE svg PUBLIC "-//W3C//DTD SVG 1.1//EN" "http://www.w3.org/Graphics/SVG/1.1/DTD/svg11.dtd">
<svg version="1.1" id="Capa_1" xmlns="http://www.w3.org/2000/svg" xmlns:xlink="http://www.w3.org/1999/xlink" x="0px" y="0px"
	 width="1081.908px" height="318.031px" viewBox="0 0 1081.908 318.031" enable-background="new 0 0 1081.908 318.031"
	 xml:space="preserve">
<rect width="1081.908" height="318.031"/>
<g>
	<path fill="#2D3034" d="M190.477-224.749c24.527-1.749,43.706-22.727,43.706-47.836c0-21.827-14.833-41.163-35.124-46.515
		c-4.346-26.117-26.807-45.401-53.773-45.401c-19.548,0-37.666,10.596-47.307,27.337c-1.855-0.373-3.815-0.531-5.722-0.531
		c-16.475,0-29.879,13.402-29.879,29.88c0,2.118,0.212,4.185,0.636,6.198c-10.647,7.735-17.111,20.236-17.111,33.48
		c0,22.357,17.959,42.275,39.202,43.441h105.054C190.212-224.694,190.37-224.694,190.477-224.749L190.477-224.749z M85.528-235.184
		c-15.839-0.954-29.137-15.999-29.137-32.952c0-10.965,5.879-21.19,15.363-26.701c2.224-1.27,3.179-3.973,2.278-6.355
		c-0.794-2.067-1.166-4.292-1.166-6.622c0-10.702,8.688-19.391,19.39-19.391c2.279,0,4.504,0.37,6.622,1.164
		c2.543,0.955,5.404-0.209,6.57-2.701c7.204-15.363,22.885-25.27,39.891-25.27c22.834,0,41.694,17.112,43.864,39.787
		c0.212,2.383,2.016,4.289,4.346,4.662c17.218,2.966,30.195,18.859,30.195,36.978c0,19.23-15.15,35.971-33.799,37.401H85.528z
		 M85.528-235.184"/>
	<path fill="#3F92CB" d="M140.042-207.001c-2.913,0-5.246,2.331-5.246,5.246v61.451c-7.256,2.228-12.66,8.953-12.82,16.848
		c-0.106,4.821,1.642,9.429,4.979,12.926c3.34,3.497,7.841,5.511,12.662,5.616h0.424c9.747,0,17.854-7.946,18.066-17.642
		c0.105-4.821-1.643-9.429-4.98-12.927c-2.173-2.278-4.876-3.918-7.843-4.821v-61.451
		C145.285-204.67,142.955-207.001,140.042-207.001L140.042-207.001z M145.552-128.224c1.376,1.482,2.173,3.392,2.118,5.403
		c-0.106,4.08-3.497,7.417-7.577,7.417h-0.209c-2.015-0.055-3.921-0.9-5.298-2.331c-1.378-1.484-2.173-3.391-2.121-5.403
		c0.106-4.079,3.498-7.416,7.577-7.416h0.212C142.267-130.554,144.121-129.708,145.552-128.224L145.552-128.224z M145.552-128.224"
		/>
	<path fill="#3F92CB" d="M106.349-201.755v29.401c0,5.086-4.133,9.165-9.165,9.165H81.713c-2.276-7.416-9.165-12.874-17.321-12.874
		c-9.961,0-18.12,8.106-18.12,18.12c0,10.01,8.106,18.117,18.12,18.117c8.156,0,15.045-5.403,17.321-12.874h15.471
		c10.86,0,19.655-8.847,19.655-19.654v-29.401c0-2.915-2.33-5.246-5.246-5.246C108.731-207.001,106.349-204.67,106.349-201.755
		L106.349-201.755z M64.392-150.314c-4.185,0-7.631-3.391-7.631-7.628c0-4.24,3.392-7.632,7.631-7.632
		c4.183,0,7.628,3.392,7.628,7.632C72.02-153.705,68.628-150.314,64.392-150.314L64.392-150.314z M64.392-150.314"/>
	<path fill="#3F92CB" d="M182.899-152.646h15.469c2.278,7.417,9.165,12.872,17.323,12.872c9.962,0,18.121-8.104,18.121-18.117
		c0-10.014-8.107-18.118-18.121-18.118c-8.158,0-15.045,5.404-17.323,12.872h-15.469c-5.086,0-9.165-4.131-9.165-9.165v-29.401
		c0-2.912-2.331-5.243-5.244-5.243c-2.916,0-5.246,2.331-5.246,5.243v29.401C163.245-161.494,172.041-152.646,182.899-152.646
		L182.899-152.646z M215.691-165.52c4.186,0,7.631,3.392,7.631,7.629c0,4.236-3.391,7.628-7.631,7.628
		c-4.236,0-7.628-3.392-7.628-7.628C208.063-162.128,211.455-165.52,215.691-165.52L215.691-165.52z M215.691-165.52"/>
</g>
<text transform="matrix(1 0 0 1 257.083 -224.8418)" font-family="'NirmalaUI-Semilight'" font-size="151.9178">OPEN DATA</text>
<text transform="matrix(1 0 0 1 275.083 -138.2637)" font-family="'NirmalaUI-Semilight'" font-size="73.0596">Córdoba</text>
<rect y="-396.04" fill="none" width="1081.908" height="318.032"/>
<path d="M1323.39-224.749c24.527-1.749,43.706-22.727,43.706-47.836c0-21.827-14.833-41.163-35.124-46.515
	c-4.346-26.117-26.807-45.401-53.773-45.401c-19.549,0-37.666,10.596-47.307,27.337c-1.855-0.373-3.815-0.531-5.723-0.531
	c-16.475,0-29.879,13.402-29.879,29.88c0,2.118,0.212,4.185,0.637,6.198c-10.647,7.735-17.111,20.236-17.111,33.48
	c0,22.357,17.959,42.275,39.201,43.441h105.055C1323.125-224.694,1323.283-224.694,1323.39-224.749L1323.39-224.749z
	 M1218.441-235.184c-15.839-0.954-29.138-15.999-29.138-32.952c0-10.965,5.88-21.19,15.363-26.701
	c2.225-1.27,3.18-3.973,2.278-6.355c-0.794-2.067-1.166-4.292-1.166-6.622c0-10.702,8.688-19.391,19.39-19.391
	c2.279,0,4.504,0.37,6.623,1.164c2.543,0.955,5.403-0.209,6.57-2.701c7.203-15.363,22.885-25.27,39.891-25.27
	c22.834,0,41.693,17.112,43.863,39.787c0.212,2.383,2.016,4.289,4.346,4.662c17.218,2.966,30.195,18.859,30.195,36.978
	c0,19.23-15.15,35.971-33.799,37.401H1218.441z M1218.441-235.184"/>
<path d="M1272.954-207.001c-2.912,0-5.245,2.331-5.245,5.246v61.451c-7.256,2.228-12.659,8.953-12.82,16.848
	c-0.106,4.821,1.642,9.429,4.979,12.926c3.34,3.497,7.841,5.511,12.662,5.616h0.424c9.748,0,17.854-7.946,18.066-17.642
	c0.105-4.821-1.643-9.429-4.979-12.927c-2.173-2.278-4.876-3.918-7.843-4.821v-61.451
	C1278.198-204.67,1275.868-207.001,1272.954-207.001L1272.954-207.001z M1278.465-128.224c1.376,1.482,2.173,3.392,2.118,5.403
	c-0.105,4.08-3.497,7.417-7.576,7.417h-0.21c-2.015-0.055-3.921-0.9-5.298-2.331c-1.379-1.484-2.173-3.391-2.121-5.403
	c0.106-4.079,3.498-7.416,7.576-7.416h0.213C1275.18-130.554,1277.034-129.708,1278.465-128.224L1278.465-128.224z
	 M1278.465-128.224"/>
<path d="M1239.262-201.755v29.401c0,5.086-4.134,9.165-9.165,9.165h-15.471c-2.276-7.416-9.165-12.874-17.321-12.874
	c-9.962,0-18.12,8.106-18.12,18.12c0,10.01,8.107,18.117,18.12,18.117c8.156,0,15.045-5.403,17.321-12.874h15.471
	c10.859,0,19.654-8.847,19.654-19.654v-29.401c0-2.915-2.33-5.246-5.245-5.246C1241.645-207.001,1239.262-204.67,1239.262-201.755
	L1239.262-201.755z M1197.305-150.314c-4.185,0-7.631-3.391-7.631-7.628c0-4.24,3.392-7.632,7.631-7.632
	c4.183,0,7.628,3.392,7.628,7.632C1204.933-153.705,1201.542-150.314,1197.305-150.314L1197.305-150.314z M1197.305-150.314"/>
<path d="M1315.813-152.646h15.469c2.278,7.417,9.165,12.872,17.323,12.872c9.962,0,18.121-8.104,18.121-18.117
	c0-10.014-8.107-18.118-18.121-18.118c-8.158,0-15.045,5.404-17.323,12.872h-15.469c-5.086,0-9.165-4.131-9.165-9.165v-29.401
	c0-2.912-2.33-5.243-5.243-5.243c-2.915,0-5.246,2.331-5.246,5.243v29.401C1296.158-161.494,1304.954-152.646,1315.813-152.646
	L1315.813-152.646z M1348.604-165.52c4.186,0,7.631,3.392,7.631,7.629c0,4.236-3.391,7.628-7.631,7.628
	c-4.236,0-7.628-3.392-7.628-7.628C1340.977-162.128,1344.368-165.52,1348.604-165.52L1348.604-165.52z M1348.604-165.52"/>
<text transform="matrix(1 0 0 1 1389.9961 -224.8418)" font-family="'NirmalaUI-Semilight'" font-size="151.9178">OPEN DATA</text>
<text transform="matrix(1 0 0 1 1407.9961 -138.2637)" font-family="'NirmalaUI-Semilight'" font-size="73.0596">Córdoba</text>
<rect x="1132.913" y="-396.04" fill="none" width="1081.908" height="318.032"/>
<path fill="#FFFFFF" d="M190.477,171.291c24.527-1.749,43.706-22.728,43.706-47.837c0-21.827-14.833-41.163-35.124-46.515
	c-4.346-26.117-26.807-45.4-53.773-45.4c-19.549,0-37.666,10.596-47.307,27.336c-1.855-0.372-3.815-0.53-5.723-0.53
	c-16.475,0-29.879,13.402-29.879,29.88c0,2.119,0.212,4.186,0.637,6.198c-10.647,7.735-17.111,20.236-17.111,33.48
	c0,22.356,17.959,42.275,39.201,43.441h105.055C190.212,171.345,190.37,171.345,190.477,171.291L190.477,171.291z M85.528,160.855
	c-15.839-0.954-29.138-15.998-29.138-32.952c0-10.966,5.88-21.19,15.363-26.7c2.225-1.271,3.18-3.974,2.278-6.355
	c-0.794-2.068-1.166-4.292-1.166-6.623c0-10.701,8.688-19.391,19.39-19.391c2.279,0,4.504,0.37,6.623,1.164
	c2.543,0.955,5.403-0.209,6.57-2.7c7.203-15.362,22.885-25.271,39.891-25.271c22.834,0,41.693,17.112,43.863,39.787
	c0.212,2.383,2.016,4.289,4.346,4.662c17.218,2.967,30.195,18.859,30.195,36.978c0,19.229-15.15,35.972-33.799,37.401H85.528z
	 M85.528,160.855"/>
<path fill="#FFFFFF" d="M140.041,189.038c-2.912,0-5.245,2.331-5.245,5.246v61.451c-7.256,2.228-12.659,8.953-12.82,16.848
	c-0.106,4.821,1.642,9.429,4.979,12.926c3.34,3.497,7.841,5.511,12.662,5.616h0.424c9.748,0,17.854-7.946,18.066-17.642
	c0.105-4.821-1.643-9.429-4.979-12.927c-2.173-2.278-4.876-3.918-7.843-4.821v-61.451
	C145.285,191.369,142.955,189.038,140.041,189.038L140.041,189.038z M145.552,267.815c1.376,1.482,2.173,3.392,2.118,5.403
	c-0.105,4.08-3.497,7.417-7.576,7.417h-0.21c-2.015-0.055-3.921-0.9-5.298-2.331c-1.379-1.484-2.173-3.391-2.121-5.403
	c0.106-4.079,3.498-7.416,7.576-7.416h0.213C142.267,265.485,144.121,266.331,145.552,267.815L145.552,267.815z M145.552,267.815"/>
<path fill="#FFFFFF" d="M106.349,194.284v29.401c0,5.086-4.134,9.165-9.165,9.165H81.713c-2.276-7.416-9.165-12.874-17.321-12.874
	c-9.962,0-18.12,8.106-18.12,18.12c0,10.01,8.107,18.117,18.12,18.117c8.156,0,15.045-5.403,17.321-12.874h15.471
	c10.859,0,19.654-8.847,19.654-19.654v-29.401c0-2.915-2.33-5.246-5.245-5.246C108.731,189.038,106.349,191.369,106.349,194.284
	L106.349,194.284z M64.392,245.725c-4.185,0-7.631-3.391-7.631-7.628c0-4.24,3.392-7.632,7.631-7.632
	c4.183,0,7.628,3.392,7.628,7.632C72.02,242.334,68.629,245.725,64.392,245.725L64.392,245.725z M64.392,245.725"/>
<path fill="#FFFFFF" d="M182.899,243.394h15.469c2.278,7.417,9.165,12.872,17.323,12.872c9.962,0,18.121-8.104,18.121-18.117
	c0-10.014-8.107-18.118-18.121-18.118c-8.158,0-15.045,5.404-17.323,12.872h-15.469c-5.086,0-9.165-4.131-9.165-9.165v-29.401
	c0-2.912-2.33-5.243-5.243-5.243c-2.915,0-5.246,2.331-5.246,5.243v29.401C163.245,234.545,172.041,243.394,182.899,243.394
	L182.899,243.394z M215.691,230.52c4.186,0,7.631,3.392,7.631,7.629c0,4.236-3.391,7.628-7.631,7.628
	c-4.236,0-7.628-3.392-7.628-7.628C208.063,233.911,211.455,230.52,215.691,230.52L215.691,230.52z M215.691,230.52"/>
<text transform="matrix(1 0 0 1 257.083 171.1973)" fill="#FFFFFF" font-family="'NirmalaUI-Semilight'" font-size="151.9178">OPEN DATA</text>
<text transform="matrix(1 0 0 1 275.083 257.7754)" fill="#FFFFFF" font-family="'NirmalaUI-Semilight'" font-size="73.0596">Córdoba</text>
</svg>
